<?xml version="1.0" encoding="UTF-8" standalone="no"?>
<!-- Created with Inkscape (http://www.inkscape.org/) -->

<svg
   width="26.450012mm"
   height="26.616598mm"
   viewBox="0 0 26.450012 26.616598"
   version="1.1"
   id="svg1"
   xml:space="preserve"
   xmlns="http://www.w3.org/2000/svg"
   xmlns:svg="http://www.w3.org/2000/svg"><defs
     id="defs1" /><g
     id="layer1"
     transform="translate(-63.065236,-21.488703)"><path
       style="fill:#6e850e;fill-opacity:1"
       d="m 75.22073,47.598541 c -1.04202,-1.04202 -0.35922,-2.645833 1.12642,-2.645833 1.45734,0 2.11037,1.937325 0.93138,2.763122 -0.79145,0.554349 -1.42211,0.518403 -2.0578,-0.117289 z m -4.51118,-0.960927 c -0.32409,-0.85242 0.47877,-2.711214 1.52726,-3.535959 0.94745,-0.745263 1.13205,-0.669815 1.13036,0.461991 -0.002,1.489975 -0.47785,2.911648 -1.12601,3.365636 -0.8272,0.579397 -1.22956,0.502775 -1.53161,-0.291668 z m 9.75655,0.421674 c -0.78952,-0.460661 -1.46852,-3.863924 -0.88473,-4.434415 0.29412,-0.287422 2.19701,1.995447 2.38795,2.864795 0.33558,1.527867 -0.34924,2.242932 -1.50322,1.56962 z m -6.99347,-1.466761 c 0.0883,-0.230183 0.1606,-1.111505 0.1606,-1.958492 0,-1.490757 0.0267,-1.5493 0.83666,-1.831637 0.46016,-0.160413 0.8887,-0.239614 0.95231,-0.176003 0.27935,0.279352 -0.30092,2.315443 -0.94139,3.303195 -0.69063,1.065108 -1.32176,1.480111 -1.00818,0.662937 z m 5.10649,-0.05419 c -0.61518,-0.679769 -1.24172,-2.293494 -1.24172,-3.198199 0,-0.755064 0.0248,-0.769851 0.8599,-0.512808 l 0.85989,0.264674 0.0163,1.959519 c 0.009,1.077735 -0.002,1.959518 -0.0251,1.959518 -0.0228,0 -0.23397,-0.212717 -0.46926,-0.472704 z M 67.01865,44.15901 c -0.660349,-0.660349 -0.680316,-1.633281 -0.04531,-2.207951 1.012593,-0.916387 2.691143,-0.227598 2.691143,1.104305 0,0.720041 -0.88744,1.632813 -1.5875,1.632813 -0.29104,0 -0.76729,-0.238125 -1.05833,-0.529167 z m 3.33107,-0.463021 c 0.20885,-1.150827 0.95914,-2.739384 1.50962,-3.196245 0.31217,-0.259076 0.45564,-0.16339 0.78992,0.526834 0.40846,0.843364 0.40842,0.843468 -0.75898,1.97805 -0.64211,0.624053 -1.16746,1.258146 -1.16746,1.409095 0,0.15095 -0.12446,0.274454 -0.27658,0.274454 -0.17521,0 -0.21058,-0.363613 -0.0965,-0.992188 z m 10.6257,-0.418472 c -1.37579,-1.482139 -1.44629,-1.682163 -0.86049,-2.441375 0.3867,-0.501177 0.41206,-0.495903 1.04927,0.218233 0.65079,0.729359 1.30493,2.566248 1.1497,3.228482 -0.0474,0.202139 -0.60969,-0.220212 -1.33848,-1.00534 z m 2.4666,0.71352 c -0.65681,-0.834994 -0.67723,-1.117807 -0.13649,-1.889822 0.45923,-0.65565 1.90102,-0.815142 2.44562,-0.270538 0.48195,0.481946 0.3829,1.922548 -0.16635,2.419618 -0.70281,0.636025 -1.51594,0.537643 -2.14278,-0.259258 z M 72.99176,40.854462 c -0.27604,-0.512571 -0.45299,-0.970717 -0.39323,-1.018101 1.58139,-1.253811 2.19235,-1.241056 2.58032,0.05387 0.39581,1.321097 0.40509,1.275286 -0.28885,1.425788 -0.32742,0.07101 -0.77554,0.205901 -0.99583,0.299753 -0.27791,0.118401 -0.55418,-0.114666 -0.90241,-0.761307 z m 5.20554,0.593429 c -0.91708,-0.294191 -1.05155,-0.719103 -0.60187,-1.901865 0.30962,-0.814361 0.65727,-0.844578 1.78761,-0.155382 l 0.85502,0.521322 -0.55042,0.932897 c -0.30274,0.513093 -0.56843,0.920742 -0.59044,0.905886 -0.022,-0.01486 -0.42696,-0.151142 -0.8999,-0.302858 z m -2.30011,-0.530027 c -0.0554,-0.181901 -0.23023,-0.735449 -0.38857,-1.230107 -0.15834,-0.494657 -0.28789,-0.941142 -0.28789,-0.992187 0,-0.05104 0.5156,-0.09281 1.14577,-0.09281 h 1.14577 l -0.40595,1.322917 c -0.38111,1.241967 -0.98278,1.735686 -1.20913,0.992187 z M 64.382507,40.412427 c -0.872091,-0.33034 -0.867676,-0.320871 -0.512833,-1.099666 0.18144,-0.398218 0.737453,-0.852162 1.338177,-1.092524 1.074641,-0.429986 3.398299,-0.565746 3.398299,-0.198546 0,0.407126 -1.725972,1.879705 -2.645834,2.257394 -0.648073,0.266094 -1.121682,0.30612 -1.577809,0.133342 z m 2.515127,-0.185899 c 0.442766,-0.270006 1.139516,-0.888441 1.548336,-1.374299 0.70618,-0.839241 0.77727,-0.864237 1.42272,-0.500278 0.37368,0.210705 0.72178,0.511341 0.77357,0.66808 0.15494,0.468959 -2.40055,1.699496 -3.52712,1.698407 l -1.022532,-9.89e-4 z M 83.55511,40.22638 c -0.58209,-0.264784 -1.21559,-0.671473 -1.40779,-0.903754 -0.30219,-0.365217 -0.23325,-0.482421 0.50984,-0.866683 0.84866,-0.43886 0.86561,-0.435659 1.37157,0.258913 0.28177,0.386796 0.94318,0.99606 1.46982,1.353918 l 0.95752,0.650653 -0.92131,-0.0058 c -0.50673,-0.0032 -1.39757,-0.222452 -1.97965,-0.487236 z m 3.15643,0.105587 c -1.04625,-0.44102 -2.49497,-1.689202 -2.49497,-2.149602 0,-0.501538 2.09316,-0.500826 3.29449,0.0011 0.82927,0.346492 1.46801,1.085695 1.46801,1.698914 0,0.506541 -1.45025,0.794071 -2.26753,0.449567 z M 71.80787,39.296418 c -0.21712,-0.261622 -0.14018,-0.627098 0.30437,-1.445755 0.32722,-0.602592 0.66197,-1.096603 0.74389,-1.097804 0.21182,-0.0031 1.68801,1.565505 1.55156,1.648704 -1.55478,0.948059 -2.33328,1.216016 -2.59982,0.894855 z m 7.58077,-0.274268 c -1.10173,-0.613027 -1.21515,-0.940266 -0.52989,-1.528763 0.91218,-0.783366 1.0674,-0.749716 1.64392,0.356362 0.46836,0.898569 0.50915,1.154536 0.2248,1.4109 -0.27069,0.244051 -0.56622,0.191405 -1.33883,-0.238499 z m -9.0627,-0.861769 c -0.43656,-0.231656 -0.82029,-0.441943 -0.85272,-0.467305 -0.13546,-0.105911 0.4964,-2.000608 0.66672,-1.999257 0.66993,0.0053 2.17021,0.607572 2.16939,0.870857 -9.3e-4,0.299165 -0.96799,2.050423 -1.1196,2.027491 -0.0385,-0.0058 -0.42723,-0.20013 -0.86379,-0.431786 z M 80.77225,37.53515 80.2276,36.46754 81.15525,36.079942 c 0.51021,-0.213179 1.05349,-0.387598 1.20728,-0.387598 0.29342,0 0.7957,1.092193 0.7957,1.730221 0,0.31359 -1.24923,1.180195 -1.70127,1.180195 -0.077,0 -0.38515,-0.480424 -0.68471,-1.06761 z m -6.87443,-0.353998 c -0.7908,-0.885858 -0.93159,-1.24039 -0.96404,-2.427506 -0.0351,-1.285338 0.0386,-1.46495 0.97813,-2.382353 0.89699,-0.87589 1.17674,-0.995279 2.38625,-1.018392 1.25308,-0.02395 1.45772,0.06125 2.39531,0.997133 0.93198,0.930288 1.02518,1.150368 1.02518,2.420937 0,1.262135 -0.0962,1.493871 -0.99219,2.390475 -0.89282,0.893421 -1.13792,0.996067 -2.44739,1.02496 -1.37558,0.03035 -1.50589,-0.02466 -2.38125,-1.005254 z m -8.731254,0.396906 c 0,-0.685512 3.642714,-2.29994 4.117714,-1.824943 0.0913,0.09128 0.0876,0.522723 -0.008,0.95875 -0.17143,0.780529 -0.20008,0.792628 -1.85465,0.783082 -0.924293,-0.0053 -1.809767,0.07018 -1.967723,0.167799 -0.157955,0.09762 -0.287191,0.05951 -0.287191,-0.08469 z m 21.187064,-0.03665 c -0.49811,-0.117393 -1.29898,-0.149613 -1.77971,-0.0716 -0.76532,0.124195 -0.90775,0.05323 -1.14487,-0.57045 -0.40122,-1.055265 -0.34329,-1.207587 0.45679,-1.201198 0.94108,0.0075 2.70475,0.820964 3.3483,1.544322 0.54168,0.608855 0.49778,0.623759 -0.88051,0.298927 z M 63.579066,35.956927 c -1.163692,-1.163692 -0.217285,-2.850069 1.502456,-2.677182 0.546246,0.05492 1.143378,0.841142 1.143378,1.505456 0,0.778276 -0.861109,1.700893 -1.5875,1.700893 -0.291042,0 -0.767292,-0.238125 -1.058334,-0.529167 z m 23.451304,-0.0192 c -0.81692,-0.642589 -0.88309,-1.280029 -0.21813,-2.101224 0.53098,-0.655726 1.66748,-0.785036 2.2983,-0.261498 0.6196,0.514223 0.50554,2.011795 -0.19035,2.499215 -0.77201,0.54074 -1.05482,0.520314 -1.88982,-0.136493 z m -15.91068,-0.36315 c -1.32535,-0.409333 -1.46983,-1.224219 -0.26458,-1.492302 0.43656,-0.0971 1.00211,-0.263551 1.25677,-0.369883 0.40194,-0.167829 0.46302,-0.03255 0.46302,1.025603 0,0.670412 -0.0893,1.206448 -0.19844,1.191189 -0.10914,-0.01526 -0.67469,-0.174831 -1.25677,-0.354607 z m 9.04816,0.214189 c -0.21793,-0.217927 -0.24927,-1.79566 -0.0398,-2.005097 0.0796,-0.07963 0.64518,0.0023 1.25677,0.182119 1.38962,0.408524 1.70809,1.323208 0.53087,1.524731 -0.40799,0.06984 -0.92661,0.207058 -1.1525,0.304925 -0.22588,0.09787 -0.49377,0.09486 -0.59531,-0.0067 z M 67.026522,33.421299 c -0.971594,-0.42142 -1.859956,-1.115316 -1.859956,-1.452802 0,-0.111237 0.433225,-0.08263 0.962722,0.06357 0.529498,0.146201 1.356502,0.191946 1.837792,0.101656 0.70199,-0.131694 0.93023,-0.0611 1.15395,0.356916 0.72246,1.349943 -0.19153,1.75606 -2.094508,0.930658 z m 2.632108,-0.524808 c -0.17131,-0.519073 -0.26984,-0.980181 -0.21895,-1.024684 0.0509,-0.0445 0.47938,-0.277666 0.95222,-0.518138 l 0.85971,-0.437223 0.52837,0.866595 c 0.71468,1.172187 0.67095,1.42727 -0.3029,1.766753 -1.27103,0.443085 -1.48157,0.367445 -1.81845,-0.653303 z m 11.39263,0.650057 c -0.35848,-0.143094 -0.6942,-0.302603 -0.74607,-0.354465 -0.12056,-0.120561 0.9662,-2.262239 1.14794,-2.262239 0.10985,0 0.65569,0.31353 1.65602,0.951218 0.0458,0.02917 0.003,0.481928 -0.0956,1.006121 -0.19304,1.028974 -0.65093,1.182833 -1.9623,0.659365 z m 2.10697,0.04635 c 0,-0.136047 0.11679,-0.554537 0.25953,-0.929976 0.23422,-0.616023 0.35849,-0.666793 1.27389,-0.520416 0.55789,0.08921 1.45313,0.04105 1.98942,-0.107029 1.20195,-0.331875 1.24187,-0.09777 0.11338,0.664933 -1.49736,1.011999 -3.63622,1.536969 -3.63622,0.892488 z M 72.10735,31.673017 c -0.81512,-1.500971 -0.44849,-1.83033 1.1649,-1.046481 l 1.22679,0.596017 -0.74699,0.779685 c -0.41084,0.428827 -0.81401,0.778704 -0.89592,0.777504 -0.0819,-0.0012 -0.41887,-0.499227 -0.74878,-1.106725 z m 6.86367,0.496542 c -0.78788,-0.83866 -0.72642,-1.031396 0.51094,-1.602301 1.44564,-0.667007 1.77825,-0.309495 1.0465,1.124853 -0.30579,0.599397 -0.65187,1.089813 -0.76907,1.089813 -0.11719,0 -0.47196,-0.275564 -0.78837,-0.612365 z M 65.027861,31.354251 c -0.440089,-0.191747 -0.942518,-0.661067 -1.116509,-1.042934 -0.274128,-0.601647 -0.249112,-0.730285 0.187457,-0.96393 0.736645,-0.39424 1.653357,-0.330082 2.397948,0.167825 0.923283,0.617399 2.109393,1.738228 2.109393,1.9933 0,0.344313 -2.701257,0.227861 -3.578289,-0.154261 z m 19.154889,-0.09664 c 0.80713,-1.508135 3.41936,-2.624446 4.51669,-1.930165 0.31161,0.197154 0.32367,0.369246 0.0656,0.935738 -0.4031,0.884722 -1.7792,1.460408 -3.4909,1.460408 -1.19814,0 -1.3142,-0.04956 -1.09134,-0.465981 z M 67.71023,30.092358 c -1.252557,-1.239361 -1.270824,-1.279183 -0.58682,-1.279183 1.21498,0 3.59941,1.225945 3.59941,1.850621 0,0.205687 -1.25014,0.818182 -1.53381,0.751479 -0.10229,-0.02405 -0.76774,-0.619366 -1.47878,-1.322917 z m 14.70051,0.945938 c -0.4566,-0.319814 -0.53094,-0.504708 -0.30998,-0.770944 0.47694,-0.574683 2.57797,-1.454177 3.47389,-1.454177 h 0.83468 l -1.19521,0.912612 c -0.65737,0.501937 -1.26607,1.097249 -1.35266,1.322917 -0.20133,0.524644 -0.69185,0.521125 -1.45072,-0.01041 z m -6.61492,-0.05833 c -0.45154,-0.06765 -0.56997,-0.209984 -0.4445,-0.534194 0.0941,-0.243082 0.23713,-0.76939 0.31789,-1.169572 0.23565,-1.167711 1.00809,-0.93478 1.46086,0.440525 0.3703,1.124806 0.3641,1.171604 -0.16707,1.261799 -0.3034,0.05152 -0.82864,0.05217 -1.16718,0.0014 z M 73.3025,30.249344 c -0.85757,-0.465241 -0.84206,-0.384445 -0.29433,-1.533031 0.411,-0.861876 0.47558,-0.894474 1.25677,-0.634324 1.17927,0.392723 1.24118,0.502033 0.90488,1.597792 -0.33188,1.081369 -0.71084,1.196959 -1.86732,0.569563 z m 4.29293,-0.262764 c -0.44863,-1.179996 -0.31444,-1.555431 0.66561,-1.862181 0.88711,-0.277662 0.94412,-0.25439 1.44138,0.588395 l 0.51773,0.877491 -0.68331,0.537489 c -0.93254,0.733539 -1.62806,0.682955 -1.94141,-0.141194 z m -5.87931,-1.113494 c -0.60965,-0.695628 -1.16727,-1.934421 -1.36681,-3.036469 -0.21691,-1.198045 0.09,-1.278959 0.73158,-0.192866 0.2597,0.439627 0.81002,1.049101 1.22294,1.354387 0.66958,0.495038 0.72201,0.637555 0.48487,1.317831 -0.34584,0.99207 -0.58329,1.115404 -1.07258,0.557117 z m 8.26585,-0.327533 c -0.31639,-0.763834 -0.27742,-0.854125 0.94202,-2.182813 0.69963,-0.76231 1.32653,-1.44555 1.3931,-1.518311 0.0666,-0.07276 0.0388,0.40349 -0.0617,1.058334 -0.18336,1.194386 -1.30739,3.439583 -1.72199,3.439583 -0.12174,0 -0.36985,-0.358557 -0.55138,-0.796793 z m -12.63834,-0.60718 c -1.082323,-0.485325 -1.093522,-2.276449 -0.0178,-2.852139 1.23669,-0.661858 2.60044,0.531324 2.24157,1.961204 -0.20417,0.813453 -1.36202,1.277342 -2.22374,0.890935 z m 16.67235,0.05402 c -0.9265,-0.344394 -1.29429,-1.390898 -0.77004,-2.191017 0.94609,-1.443905 2.82271,-0.954226 2.82271,0.736547 0,1.23317 -0.91115,1.87879 -2.05267,1.45447 z m -9.53903,-0.161809 c -0.73993,-0.141311 -0.78359,-0.262859 -0.9048,-2.518624 l -0.0957,-1.781428 0.59409,0.558126 c 0.86525,0.812856 1.86449,4.012427 1.21635,3.89474 -0.10914,-0.01982 -0.47361,-0.08858 -0.80993,-0.152814 z m 2.86045,-0.653661 c 0,-0.881607 0.84561,-2.884908 1.41841,-3.360288 0.26355,-0.218727 0.33022,0.13715 0.31749,1.69476 -0.0158,1.931706 -0.0316,1.977055 -0.78319,2.239829 -0.4219,0.147513 -0.80886,0.268205 -0.8599,0.268205 -0.0511,0 -0.0928,-0.379128 -0.0928,-0.842506 z m -5.47529,-1.090088 c -1.1067,-1.260456 -1.48846,-2.308398 -1.15779,-3.178131 0.71924,-1.891747 2.66433,0.322883 2.66433,3.033541 0,1.284343 -0.46652,1.329117 -1.50654,0.14459 z m 7.55206,0.41124 c -0.16232,-1.883708 0.41671,-3.725484 1.27368,-4.051305 0.994,-0.377916 1.11011,-0.3195 1.29199,0.650008 0.19442,1.036371 -0.12105,1.773108 -1.28651,3.004422 -0.92027,0.972275 -1.22153,1.065743 -1.27916,0.396875 z M 75.37999,24.2892 c -0.89855,-0.706795 -0.84107,-1.694219 0.14111,-2.424157 0.62227,-0.462461 0.77874,-0.479297 1.45521,-0.156579 0.59416,0.283451 0.77515,0.566219 0.83749,1.308407 0.12722,1.514643 -1.22625,2.222198 -2.43381,1.272329 z"
       id="path1" /><path
       style="fill:#5a6f06;fill-opacity:1;stroke-width:0.232088"
       d="m 256.15625,168.51815 c -2.83428,-1.03934 -4.57276,-3.34258 -4.57276,-6.05828 0,-1.56914 0.54119,-2.7276 1.80957,-3.8735 2.4084,-2.17585 6.13991,-1.88908 8.36888,0.64317 2.0392,2.31665 1.7987,5.07763 -0.65613,7.53246 -1.71703,1.71703 -3.41415,2.31919 -4.94956,1.75615 z"
       id="path2"
       transform="scale(0.26458333)" /><path
       style="fill:#5a6f06;fill-opacity:1;stroke-width:0.232088"
       d="m 286.13727,181.14469 c -1.36,-0.71871 -2.93877,-2.65407 -3.36716,-4.12769 -0.31116,-1.07034 -0.32913,-1.49461 -0.10563,-2.49334 0.94556,-4.22519 6.55927,-5.96695 9.6275,-2.98712 1.63265,1.58561 2.31467,3.81067 1.76728,5.76573 -0.86877,3.10295 -5.27613,5.24066 -7.92199,3.84242 z"
       id="path3"
       transform="scale(0.26458333)" /><path
       style="fill:#5a6f06;fill-opacity:1;stroke-width:0.232088"
       d="m 317.78374,168.12196 c -1.75027,-0.86636 -4.22598,-4.18605 -4.23055,-5.67275 -0.003,-1.0335 1.06127,-3.00154 2.10805,-3.89754 2.28739,-1.95793 6.75613,-2.06398 8.41383,-0.19969 1.11784,1.25716 1.37769,3.91043 0.62243,6.35566 -0.9995,3.23603 -4.14036,4.78713 -6.91376,3.41432 z"
       id="path4"
       transform="scale(0.26458333)" /><path
       style="fill:#5a6f06;fill-opacity:1;stroke-width:0.232088"
       d="m 331.46783,137.28099 c -1.32854,-0.60295 -3.51197,-2.34869 -4.18577,-3.3467 -1.08062,-1.60057 -0.91176,-3.32865 0.52237,-5.34578 1.33941,-1.88391 3.1137,-2.76017 5.51983,-2.72605 2.97972,0.0422 4.82087,1.96935 4.82583,5.05112 0.005,2.99587 -1.094,4.90597 -3.51947,6.118 -1.66915,0.83408 -1.84412,0.84788 -3.16279,0.24941 z"
       id="path5"
       transform="scale(0.26458333)" /><path
       style="fill:#5a6f06;fill-opacity:1;stroke-width:0.232088"
       d="m 317.9063,105.7852 c -1.3741,-0.45828 -2.82482,-1.68181 -3.48247,-2.93709 -0.68194,-1.30164 -0.68819,-3.394643 -0.014,-4.680559 1.23495,-2.355369 4.17755,-4.072345 6.35021,-3.705276 2.33779,0.394966 4.16031,2.591456 4.35228,5.245323 0.33552,4.638622 -3.02428,7.472292 -7.20605,6.077602 z"
       id="path6"
       transform="scale(0.26458333)" /><path
       style="fill:#5a6f06;fill-opacity:1;stroke-width:0.232088"
       d="m 288.09708,93.163907 c -1.30267,-0.245254 -2.24594,-0.760426 -3.48714,-1.904517 -2.06886,-1.907016 -2.48117,-3.948159 -1.23606,-6.119106 1.03232,-1.799901 3.65916,-3.792959 4.99558,-3.790272 0.75562,0.0015 2.7519,0.854199 3.87932,1.656989 1.45568,1.036541 2.16601,4.180304 1.47871,6.544518 -0.78134,2.687738 -2.99569,4.108427 -5.63041,3.612388 z"
       id="path7"
       transform="scale(0.26458333)" /><path
       style="fill:#5a6f06;fill-opacity:1;stroke-width:0.232088"
       d="m 254.98063,105.60825 c -1.0998,-0.39207 -2.11778,-1.33121 -2.77613,-2.56114 -0.72754,-1.35918 -0.70666,-4.245697 0.0409,-5.657445 1.05758,-1.997138 2.80298,-3.092272 4.92841,-3.092272 2.3811,0 4.63894,1.648329 5.42737,3.962239 0.48036,1.409779 0.44332,3.409278 -0.0847,4.571808 -1.11396,2.45264 -4.71898,3.78101 -7.53588,2.77681 z"
       id="path8"
       transform="scale(0.26458333)" /><path
       style="fill:#5a6f06;fill-opacity:1;stroke-width:0.232088"
       d="m 242.60393,137.29256 c -1.31504,-0.59704 -2.96217,-2.15683 -3.54165,-3.35388 -0.64147,-1.32511 -0.63863,-3.37022 0.007,-4.70296 0.91869,-1.89776 2.93958,-3.11227 5.45176,-3.27638 1.19978,-0.0784 1.82759,-0.0104 2.33735,0.25325 1.89593,0.98042 3.48218,3.71605 3.27027,5.63985 -0.15317,1.39045 -1.03466,2.98433 -2.31047,4.17769 -1.86345,1.74304 -3.35807,2.10494 -5.2138,1.26243 z"
       id="path9"
       transform="scale(0.26458333)" /><path
       style="fill:#5a6f06;fill-opacity:1;stroke-width:0.232088"
       d="m 283.51514,143.86021 c -0.9239,-0.2836 -1.51223,-0.73301 -3.09312,-2.36274 -3.92183,-4.04298 -4.56178,-5.55782 -4.57596,-10.83187 -0.009,-3.24348 0.0293,-3.55709 0.55725,-4.5903 0.83023,-1.62493 5.21433,-5.82242 6.91229,-6.61807 1.25508,-0.58812 1.58154,-0.63311 5.12623,-0.70636 3.73908,-0.0773 3.802,-0.0703 5.09887,0.56419 1.54205,0.75446 5.66371,4.72119 6.62351,6.37455 0.82081,1.41394 1.18099,4.0392 0.98517,7.18082 -0.21074,3.38113 -0.67309,4.31265 -3.63398,7.32152 -2.68443,2.72794 -3.9083,3.4858 -6.15319,3.8103 -2.38196,0.3443 -6.50585,0.26966 -7.84707,-0.14204 z"
       id="path10"
       transform="scale(0.26458333)" /><path
       style="fill:#93ad18;fill-opacity:1;stroke-width:0.232088"
       d="m 283.37956,143.73638 c -0.91959,-0.26312 -4.26983,-3.51235 -5.55759,-5.39004 -1.42718,-2.08098 -1.68856,-3.11069 -1.81547,-7.15205 -0.11242,-3.57974 -0.10303,-3.67249 0.49507,-4.89498 0.71641,-1.46429 4.72912,-5.50035 6.49854,-6.53637 1.04252,-0.6104 1.38964,-0.67578 4.52572,-0.85247 5.26586,-0.29668 6.01531,-0.0252 9.62061,3.48433 3.43915,3.34784 3.97594,4.71565 3.83294,9.76689 -0.11211,3.96022 -0.39755,4.61788 -3.3161,7.64045 -3.69979,3.83165 -4.62387,4.21961 -9.97419,4.18759 -1.92347,-0.0115 -3.86276,-0.12552 -4.30953,-0.25335 z"
       id="path11"
       transform="scale(0.26458333)" /><path
       style="fill:#5a6f07;fill-opacity:1;stroke-width:0.353553"
       d="m 286.87493,181.30733 c -1.08046,-0.21303 -3.30351,-2.63443 -3.83321,-4.17523 -1.18382,-3.44351 1.58815,-6.89826 5.53215,-6.89482 3.57773,0.003 6.35822,3.82494 5.24243,7.2058 -0.51104,1.5485 -2.39961,3.24346 -4.15802,3.73177 -1.36527,0.37914 -1.49977,0.38554 -2.78335,0.13248 z"
       id="path44"
       transform="scale(0.26458333)" /><path
       style="fill:#5a6f07;fill-opacity:1;stroke-width:0.353553"
       d="m 317.63953,167.80157 c -1.41144,-0.8607 -3.22694,-3.07462 -3.7022,-4.51469 -0.64511,-1.9547 1.0054,-4.48628 3.64359,-5.58858 2.58933,-1.0819 5.9061,-0.3242 6.90537,1.5775 0.69958,1.33136 0.3586,5.29247 -0.58735,6.82304 -1.36423,2.20738 -4.17706,2.97254 -6.25941,1.70273 z"
       id="path45"
       transform="scale(0.26458333)" /><path
       style="fill:#5a6f07;fill-opacity:1;stroke-width:0.353553"
       d="m 331.67217,137.14493 c -2.65833,-1.11775 -4.98884,-3.66033 -4.98884,-5.44282 0,-1.22456 1.32777,-3.43709 2.68296,-4.47074 1.74125,-1.32812 4.74599,-1.55863 6.44232,-0.49423 1.34949,0.84676 2.19181,2.58814 2.18067,4.5082 -0.0217,3.73456 -3.57467,7.0527 -6.31711,5.89959 z"
       id="path46"
       transform="scale(0.26458333)" /><path
       style="fill:#5a6f07;fill-opacity:1;stroke-width:0.353553"
       d="m 317.31417,105.33324 c -3.39099,-1.76362 -4.21357,-4.8311 -2.13697,-7.969052 0.95429,-1.44203 3.38071,-2.788656 5.02473,-2.788656 1.40185,0 3.23719,1.276426 4.05899,2.822911 1.37516,2.587792 0.41787,6.803097 -1.80614,7.953177 -1.34051,0.69321 -3.78925,0.68445 -5.14061,-0.0184 z"
       id="path47"
       transform="scale(0.26458333)" /><path
       style="fill:#5a6f07;fill-opacity:1;stroke-width:0.353553"
       d="m 286.86997,92.674414 c -0.60459,-0.273765 -1.67086,-1.069355 -2.36948,-1.767978 -2.3457,-2.345694 -2.07743,-5.178491 0.72391,-7.644333 2.01927,-1.77743 2.89708,-2.008507 4.82822,-1.270996 2.53072,0.966492 3.75025,2.770529 3.75025,5.547729 0,4.067271 -3.52523,6.678598 -6.9329,5.135578 z"
       id="path48"
       transform="scale(0.26458333)" /><path
       style="fill:#5a6f07;fill-opacity:1;stroke-width:0.353553"
       d="m 254.69778,105.23383 c -2.82094,-1.31871 -3.76072,-5.364707 -1.932,-8.317704 1.90808,-3.081139 6.64346,-3.146736 8.87901,-0.122996 1.08354,1.465572 1.37004,4.61432 0.56201,6.17686 -1.23334,2.38502 -4.89094,3.48772 -7.50902,2.26384 z"
       id="path49"
       transform="scale(0.26458333)" /><path
       style="fill:#5a6f07;fill-opacity:1;stroke-width:0.353553"
       d="m 243.35878,137.46289 c -1.21393,-0.2363 -3.91275,-2.82813 -4.36186,-4.18893 -1.20463,-3.65008 1.8274,-7.22176 6.13781,-7.2302 2.14197,-0.004 4.37553,2.29807 4.71984,4.86502 0.21486,1.60193 -0.66841,3.60656 -2.24643,5.09839 -0.92907,0.87833 -2.66846,1.76685 -3.23738,1.65373 -0.13318,-0.0265 -0.58857,-0.11559 -1.01198,-0.19801 z"
       id="path50"
       transform="scale(0.26458333)" /><path
       style="fill:#5a6f07;fill-opacity:1;stroke-width:0.353553"
       d="m 255.08877,167.8068 c -3.91042,-2.42867 -4.48459,-6.62833 -1.2754,-9.32868 2.23433,-1.88007 5.48448,-1.54096 7.59229,0.79214 2.02021,2.23613 2.10362,3.87307 0.32914,6.45943 -1.77599,2.58855 -4.46793,3.42987 -6.64603,2.07711 z"
       id="path51"
       transform="scale(0.26458333)" /><path
       style="fill:#5a6f07;fill-opacity:1;stroke-width:0.353553"
       d="m 286.54388,181.21367 c -1.14525,-0.46428 -3.26876,-3.03431 -3.65101,-4.41874 -0.91284,-3.306 1.90697,-6.56094 5.681,-6.55765 2.63768,0.002 4.90911,2.02923 5.44366,4.85771 0.29239,1.54717 -0.0288,2.64401 -1.17221,4.00286 -1.61694,1.92163 -4.44124,2.86994 -6.30144,2.11582 z"
       id="path52"
       transform="scale(0.26458333)" /><path
       style="fill:#5a6f07;fill-opacity:1;stroke-width:0.353553"
       d="m 317.65265,167.80955 c -1.23109,-0.75075 -2.76765,-2.48177 -3.55573,-4.00574 -0.71436,-1.38144 -0.39146,-2.69451 1.08754,-4.42239 1.8455,-2.15605 5.12795,-2.84996 7.60487,-1.60767 1.56801,0.78644 2.11448,1.89617 2.12102,4.30724 0.0129,4.76585 -3.8441,7.81024 -7.2577,5.72856 z"
       id="path53"
       transform="scale(0.26458333)" /></g></svg>
